<svg xmlns="http://www.w3.org/2000/svg" viewBox="0 0 386.55 232.78"><defs><style>.cls-1{fill:#f2f2f2;}.cls-2{fill:#3f3d56;}.cls-3{opacity:0.1;}.cls-3,.cls-8{isolation:isolate;}.cls-4{fill:#fea01a;}.cls-5{fill:none;stroke:#3f3d56;stroke-miterlimit:10;}.cls-6{fill:#46455b;}.cls-7{fill:#a8a8a8;}.cls-8{opacity:0.2;}.cls-9{fill:#a0616a;}.cls-10{fill:#605d82;}.cls-11{fill:#535070;}.cls-12{fill:#fff;}.cls-13{fill:#57b894;}</style></defs><title>4</title><g id="Layer_2" data-name="Layer 2"><g id="Layer_1-2" data-name="Layer 1"><g id="Group_452" data-name="Group 452"><path id="Path_2291" data-name="Path 2291" class="cls-1" d="M263,132.88l3.31-.57.95-.18A27.21,27.21,0,0,1,284.62,82l-4.35,10.34,10.3-9,.07,0a27.22,27.22,0,0,1,16.62,34.71h0c-.17.49-.37,1-.57,1.43a32.37,32.37,0,0,0,8-5.34c4.6-4.41,7.13-10.5,10-18,5.58-14.86,10.95-29.93,16.11-45A27.21,27.21,0,0,1,328,18.18c.28-.79.6-1.54.94-2.29.08-.18.17-.37.26-.55.34-.71.7-1.41,1.1-2.08l.21-.32c.35-.57.71-1.12,1.1-1.65.14-.2.29-.4.44-.59.43-.57.89-1.13,1.36-1.66.16-.18.33-.34.5-.52.36-.38.74-.76,1.13-1.12.2-.2.4-.39.61-.57l.16-.15h0a27.18,27.18,0,0,1,34.79-.78L365,19.36l10.17-8.88a27.06,27.06,0,0,1,1,32.05h0c-.11.16-.24.31-.35.47l-.66.89q-.44.56-.9,1.08c-.23.27-.46.54-.7.8s-.72.74-1.1,1.09c-.21.21-.42.43-.64.63-.59.52-1.19,1-1.82,1.48-.22.17-.45.31-.67.47-.44.31-.88.61-1.34.9-.28.18-.57.34-.86.5s-.84.47-1.27.69-.61.3-.92.43-.89.39-1.34.57l-.91.35c-.51.18-1,.33-1.54.48l-.78.23c-.78.2-1.56.36-2.36.5l-.45,0c-.66.1-1.32.18-2,.22l-.87,0c-.54,0-1.08,0-1.62,0l-.95,0c-.53,0-1.05-.08-1.58-.14-.32,0-.63-.07-.94-.12-.57-.09-1.14-.2-1.7-.32l-.11,0q-3.27,9.57-6.66,19.08a27.19,27.19,0,0,1,38.4,2c.36.39.7.8,1,1.21l-9.41,10.4,12.74-5.08a27.13,27.13,0,0,1,1.09,20.7,26.23,26.23,0,0,1-3.46,6.69A27.2,27.2,0,0,1,332.4,96.89l-.71,1.92c-2.49,6.62-5.58,14.85-11.79,20.8-4.21,4-9.39,6.6-14.37,8.76q-4.84,2.12-9.84,3.91a27.21,27.21,0,0,1-12.17,3.88c-5.25,1.45-10.56,2.67-15.91,3.61l-3.35.57c-3,.52-6.08,1-9.13,1.66.44.13.88.25,1.31.41a27.2,27.2,0,0,1,18.17,26.48l-21,6.43,19,3a27.23,27.23,0,0,1-45.36,8l.58,1.93c.39,1.28.77,2.55,1.13,3.81,5,17.14,2.85,30.62-6,38l-4.83-5.84c8.66-7.14,6-21.87,3.6-30-.36-1.23-.73-2.48-1.11-3.74-3.25-10.79-6.93-23-2.16-34.27C225.61,139.28,246.33,135.73,263,132.88Z"/><path id="Path_2292" data-name="Path 2292" class="cls-2" d="M256.84,232.28H110.05a18.15,18.15,0,0,1-18.14-18.15V146.88a7.21,7.21,0,0,1,2.24-5.22l77.78-73.73a16.74,16.74,0,0,1,23,0l74.16,70.3A18.78,18.78,0,0,1,275,151.87v62.26a18.16,18.16,0,0,1-18.15,18.15Z"/><path id="Path_2293" data-name="Path 2293" class="cls-3" d="M91.91,148H273.46v73.34a11,11,0,0,1-11,11H102.86a11,11,0,0,1-11-11Z"/><rect id="Rectangle_944" data-name="Rectangle 944" class="cls-4" x="115.74" y="90.2" width="135.02" height="135.02" rx="26.18" ry="26.18"/><path id="Path_2295" data-name="Path 2295" class="cls-3" d="M250.77,151v74.2h-135V151l67.52,32.63Z"/><path id="Path_2296" data-name="Path 2296" class="cls-2" d="M183.26,187.84,96.76,146a3.51,3.51,0,0,0-5,3.16v71.94a11,11,0,0,0,11,11H263.84a11,11,0,0,0,11-11v-70.7a4.28,4.28,0,0,0-6.15-3.86Z"/><rect id="Rectangle_945" data-name="Rectangle 945" class="cls-1" x="127.38" y="102.59" width="37.76" height="5.34"/><rect id="Rectangle_946" data-name="Rectangle 946" class="cls-1" x="124.33" y="122.05" width="112.14" height="3.05"/><rect id="Rectangle_947" data-name="Rectangle 947" class="cls-1" x="124.33" y="132.35" width="112.14" height="3.05"/><rect id="Rectangle_948" data-name="Rectangle 948" class="cls-1" x="124.33" y="142.64" width="112.14" height="3.05"/><line id="Line_35" data-name="Line 35" class="cls-5" x1="23.25" y1="232.09" x2="337.54" y2="232.09"/><path id="Path_2297" data-name="Path 2297" class="cls-6" d="M0,185.12c0,22.49,14.11,40.69,31.54,40.69"/><path id="Path_2298" data-name="Path 2298" class="cls-4" d="M31.54,225.81c0-22.75,15.75-41.15,35.2-41.15"/><path id="Path_2299" data-name="Path 2299" class="cls-4" d="M11.43,187.16c0,21.36,9,38.65,20.11,38.65"/><path id="Path_2300" data-name="Path 2300" class="cls-6" d="M31.54,225.81c0-29.06,18.2-52.58,40.69-52.58"/><path id="Path_2301" data-name="Path 2301" class="cls-7" d="M24.91,226.09s4.47-.14,5.82-1.1,6.88-2.1,7.22-.56,6.72,7.65,1.67,7.7-11.74-.79-13.08-1.61S24.91,226.09,24.91,226.09Z"/><path id="Path_2302" data-name="Path 2302" class="cls-8" d="M39.71,231.59c-5.05,0-11.74-.79-13.08-1.61-1-.62-1.44-2.86-1.57-3.9h-.15s.28,3.61,1.63,4.43,8,1.64,13.08,1.6c1.45,0,2-.53,1.93-1.3C41.35,231.29,40.79,231.58,39.71,231.59Z"/><path id="Path_2303" data-name="Path 2303" class="cls-9" d="M274.51,62.08c-.22,2-1.78,3.69-2.36,5.66-.87,3,.63,6.15,2.69,8.47a18.79,18.79,0,0,0,13.06,6.2,5.59,5.59,0,0,0,2.15-.24,4.56,4.56,0,0,0,1.65-1.12,10.56,10.56,0,0,0,2.71-5.88,31.28,31.28,0,0,0,.07-6.56,3.77,3.77,0,0,0-.24-1.33,3.34,3.34,0,0,0-.86-1,19.77,19.77,0,0,0-3.65-2.65,4.24,4.24,0,0,1-1.54-1.18,3.8,3.8,0,0,1-.47-1.4l-.4-2a3.94,3.94,0,0,0-.59-1.67c-.72-1-2.08-1.1-3.28-1.14L279.06,56a20.54,20.54,0,0,0-4.5-.17c-1.24.25-.83,1.4-.6,2.44A17.28,17.28,0,0,1,274.51,62.08Z"/><path id="Path_2304" data-name="Path 2304" class="cls-3" d="M274.51,62.08c-.22,2-1.78,3.69-2.36,5.66-.87,3,.63,6.15,2.69,8.47a18.79,18.79,0,0,0,13.06,6.2,5.59,5.59,0,0,0,2.15-.24,4.56,4.56,0,0,0,1.65-1.12,10.56,10.56,0,0,0,2.71-5.88,31.28,31.28,0,0,0,.07-6.56,3.77,3.77,0,0,0-.24-1.33,3.34,3.34,0,0,0-.86-1,19.77,19.77,0,0,0-3.65-2.65,4.24,4.24,0,0,1-1.54-1.18,3.8,3.8,0,0,1-.47-1.4l-.4-2a3.94,3.94,0,0,0-.59-1.67c-.72-1-2.08-1.1-3.28-1.14L279.06,56a20.54,20.54,0,0,0-4.5-.17c-1.24.25-.83,1.4-.6,2.44A17.28,17.28,0,0,1,274.51,62.08Z"/><path id="Path_2305" data-name="Path 2305" class="cls-10" d="M302.43,154l-1.86,20.44c-.49,5.37-1,10.75-1.94,16.05q-.5,2.73-1.18,5.43c-1.27,5-3.12,9.88-3.72,15,0,.15,0,.3-.05.45a13,13,0,0,1-.63,3.33c-.3.78-.76,1.5-1.08,2.27a14.25,14.25,0,0,0-.81,4.93,20.88,20.88,0,0,0-7.31-2.5c-1.24-.19-2.63-.32-3.47-1.25s-.83-2.59-.67-4l1.47-12.8a33.26,33.26,0,0,1,.93-5.44c.17-.59.38-1.18.59-1.76.28-.8.57-1.61.79-2.44a29.19,29.19,0,0,0,.65-4c.5-4.3,1.11-8.58,1.65-12.87l0-.23a132.46,132.46,0,0,0,1.23-19.6c0-1-.07-1.94-.13-2.91-.09-1.41-.22-2.16.95-3a21.73,21.73,0,0,1,4.47-2.3c.79-.34,9.54-3.45,9.74-2.77a16.94,16.94,0,0,1,.64,4.47A49.13,49.13,0,0,1,302.43,154Z"/><path id="Path_2306" data-name="Path 2306" class="cls-3" d="M298.63,190.5q-.5,2.73-1.18,5.43c-1.27,5-3.12,9.88-3.72,15,0,.15,0,.3-.05.45-3.9-5.57-7.18-11.56-11-17.19.29-.8.58-1.61.79-2.43a29.36,29.36,0,0,0,.66-4.06c.5-4.3,1.11-8.58,1.65-12.87l0-.23a14.42,14.42,0,0,0,.95,2.65c2.56,5.19,8.63,7.81,11.6,12.78C298.46,190.19,298.54,190.34,298.63,190.5Z"/><path id="Path_2307" data-name="Path 2307" class="cls-10" d="M267,144.83a97.68,97.68,0,0,0,1.46,12.41l1.38,8.49c.75,4.64,1.53,9.38,3.73,13.54,1.64,3.12,4,5.77,6.16,8.57,5.27,6.86,9.22,14.64,14.22,21.7,1.45,2.06,3.53,4.28,6,3.85,1.63-.28,2.81-1.64,4.08-2.68,1.51-1.23,3.33-2.13,4.52-3.68s1.41-4.1-.19-5.2a8.21,8.21,0,0,0-1.84-.76c-2.49-.94-4.1-3.38-5.13-5.84s-1.65-5.1-3-7.39c-3-5-9-7.6-11.6-12.79-1.43-2.91-1.57-6.26-1.68-9.5l-.27-8.26a6.05,6.05,0,0,1,.31-2.67c1-2.2,3.93-2.4,6.32-2.68a21.68,21.68,0,0,0,7.75-2.45,8.09,8.09,0,0,0,3.46-3.07,9.93,9.93,0,0,0,.84-4.16l.83-15a9.36,9.36,0,0,0-.32-3.83c-1.14-3-5-4-8.21-3.87-6,.26-11.58,2.86-17.26,4.61a44,44,0,0,1-4.28,1.11,34.26,34.26,0,0,0-4,.56c-2.16.73-2.11,5.46-2.41,7.42A62.87,62.87,0,0,0,267,144.83Z"/><path id="Path_2308" data-name="Path 2308" class="cls-11" d="M299.12,214a3.83,3.83,0,0,1,.84,2.06,70.61,70.61,0,0,1,1.2,12.47,2,2,0,0,0,.22,1.13,1.46,1.46,0,0,0,.59.48c1.53.73,3.31-.29,4.6-1.41,2.37-2.08,4.37-4.87,4.51-8a17.94,17.94,0,0,1,.08-2.43,10.07,10.07,0,0,1,1.52-3.25,28.66,28.66,0,0,0,2.5-5.6c.23-.74.38-1.66-.19-2.17a2.34,2.34,0,0,0-.68-.36l-6.94-2.57c-.6-.22-2.1,3.62-2.33,4a3.16,3.16,0,0,1-2.32,1.84c-1.19.24-2.6-.1-3.72.49C297.12,211.72,298.06,212.94,299.12,214Z"/><path id="Path_2309" data-name="Path 2309" class="cls-11" d="M288.42,216.38a2.28,2.28,0,0,0-.53-.67,2.48,2.48,0,0,0-1.06-.36c-1.32-.22-2.89-.37-3.8.61s-.71,2.42-1.42,3.45c-.23.33-.53.6-.73.94a3.64,3.64,0,0,0-.32,1.69c0,1.6-.07,3.2,0,4.8a6.73,6.73,0,0,0,1.15,3.79c1.35,1.68,3.77,1.93,5.92,2l1.74.09a3.3,3.3,0,0,0,1.43-.13,2.37,2.37,0,0,0,1.23-1.35c.9-2.26-.53-4.68-1.42-6.94C289.64,221.73,289.82,218.84,288.42,216.38Z"/><path id="Path_2310" data-name="Path 2310" class="cls-2" d="M274,50.57a1.39,1.39,0,0,1,.1-.67c.26-.45.92-.33,1.42-.2,2,.51,4.15,0,6.23.17s4.43,1.16,4.84,3.2a15,15,0,0,0,3.84-4,4.67,4.67,0,0,0,1-2.89c-.11-1.49-1.36-2.61-2.52-3.56l-3.47-2.82a5.21,5.21,0,0,0-1.54-1,7.91,7.91,0,0,0-2.52-.14c-2.52,0-5.2-1.15-7.45,0a7.89,7.89,0,0,0-2.31,2.11l-3.09,3.65a1.85,1.85,0,0,0-.5.84,3.75,3.75,0,0,0,.22,1.33c.15.82-.2,1.69.07,2.48.45,1.3,2,1.48,3,2.23.36.28.92,1.22,1.35,1.21C273.45,52.56,274,51.17,274,50.57Z"/><circle id="Ellipse_438" data-name="Ellipse 438" class="cls-9" cx="279.25" cy="51.46" r="9.89"/><path id="Path_2311" data-name="Path 2311" class="cls-2" d="M281.57,73.1a4.8,4.8,0,0,0-4.67-3.21,1.35,1.35,0,0,1-.86-.11,1.09,1.09,0,0,1-.35-.44,17.36,17.36,0,0,1-1.44-3.41c-.16-.52-.38-1.14-.9-1.27a1.2,1.2,0,0,0-1.15.5,10.11,10.11,0,0,1-.83,1c-1.24,1.11-3.44.1-4.76,1.12-.22.17-.4.38-.62.53a2.92,2.92,0,0,1-.73.31,69.58,69.58,0,0,0-7.49,2.93c.88,5.29,1.78,10.67,3.84,15.63,1,2.35,2.09,4.66,2.87,7.09,1.74,5.38,1.82,11.13,1.84,16.78,0,3.87,0,7.83-1.26,11.49a11.51,11.51,0,0,0-.71,2.52,2.62,2.62,0,0,0,.89,2.35,3,3,0,0,0,1.37.48,17.82,17.82,0,0,0,6.49-.75c5.72-1.33,11.56-2.09,17.39-2.85l9.76-1.26a5.65,5.65,0,0,0,2-.53c1.79-1,2-3.66.85-5.37a28.56,28.56,0,0,1-1.73-2.36,2.19,2.19,0,0,1,.28-2.68c1.57-1.23,1.1-3.5,1.18-5.48q.31-8.33-.09-16.66a33.1,33.1,0,0,1-.05-3.45,30.41,30.41,0,0,1,1.07-5.77l3-11.67a6.08,6.08,0,0,0-3.67-2.36c-1.4-.35-2.87-.46-4.25-.89-2.84-.87-5.37-3.1-8.33-2.9a1.59,1.59,0,0,0-.64.16c-.67.38-.56,1.34-.6,2.11a5.85,5.85,0,0,1-2.72,4.11,48,48,0,0,0-4.22,2.85,1.89,1.89,0,0,0-.75,1.44Z"/><path id="Path_2312" data-name="Path 2312" class="cls-9" d="M242.37,84.19a12,12,0,0,1-2.08,1.07,6.78,6.78,0,0,0-2,1,2.88,2.88,0,0,0-.69.86,3.8,3.8,0,0,0,3.51,5.67,7.72,7.72,0,0,0,2.6-.77l7-3a5.49,5.49,0,0,0,3-2.27.49.49,0,0,0,.06-.36.58.58,0,0,0-.28-.3,15.58,15.58,0,0,1-4.06-3.83c-.29-.39-.64-1.3-1-1.54C246.91,79.8,243.56,83.42,242.37,84.19Z"/><path id="Path_2313" data-name="Path 2313" class="cls-9" d="M317,81.7l2.57,2.94c.55.63,1.1,1.26,1.61,1.94a22.83,22.83,0,0,1,2.94,5.54,9.67,9.67,0,0,1,.83,4.59,11.65,11.65,0,0,1-.64,2.33,28.73,28.73,0,0,1-1.75,4.21,23.3,23.3,0,0,1-2,3,69,69,0,0,1-6.52,7.46,8.52,8.52,0,0,0-1.63,3.45c-.7,2.17-2.38,3.86-4,5.47a11.58,11.58,0,0,1-1.72,1.48,5.61,5.61,0,0,1-3.13.89,3.11,3.11,0,0,1-3.21-3.33,6.49,6.49,0,0,1,.54-3.25c1.48-3.27,5.27-4.69,7.95-7.07a25.87,25.87,0,0,0,3.95-4.9,16.42,16.42,0,0,0,2-3.5c.6-1.6.37-3.49.89-5.11.22-.69.62-1.31.85-2a2.34,2.34,0,0,0-.11-2.08,3.18,3.18,0,0,0-1.17-.85c-1.71-.87-3.63-2-4-3.88a4.19,4.19,0,0,1,.77-3,12.5,12.5,0,0,1,2.16-2.26C315,83.11,316.21,82.37,317,81.7Z"/><path id="Path_2314" data-name="Path 2314" class="cls-9" d="M240.73,88.29A4.77,4.77,0,0,0,238.79,86,3.54,3.54,0,0,0,236,86a10.07,10.07,0,0,0-2.47,1.5l-2.22,1.63A5.63,5.63,0,0,0,230,90.31a5.11,5.11,0,0,0-.68,1.89,13.23,13.23,0,0,0-.35,4.65,13.2,13.2,0,0,0,3.52,6.58c1,1.19,2.31,2.39,3.89,2.44a1.77,1.77,0,0,0,1.72-.86,2.07,2.07,0,0,0,.15-.77,17.17,17.17,0,0,0-2-8.06,5.11,5.11,0,0,1-.64-2.16.58.58,0,0,1,.1-.36.6.6,0,0,1,.38-.19c1.59-.31,4.33.93,5.45-.84C242.23,91.47,241.24,89.33,240.73,88.29Z"/><path id="Path_2315" data-name="Path 2315" class="cls-2" d="M273.49,47.46a1.52,1.52,0,0,1,.1-.67c.26-.45.93-.33,1.43-.2,2,.51,4.15,0,6.23.17s4.42,1.15,4.84,3.2a15.34,15.34,0,0,0,3.84-4,4.8,4.8,0,0,0,1-2.89c-.11-1.49-1.37-2.61-2.53-3.56l-3.46-2.83a5.35,5.35,0,0,0-1.55-1,7.6,7.6,0,0,0-2.52-.14c-2.51,0-5.2-1.15-7.44,0a8.2,8.2,0,0,0-2.32,2.11L268,41.38a1.93,1.93,0,0,0-.49.84,3.57,3.57,0,0,0,.22,1.33c.14.82-.21,1.69.06,2.47.45,1.3,2,1.49,3,2.24.36.28.93,1.22,1.36,1.21C272.94,49.44,273.47,48.06,273.49,47.46Z"/><path id="Path_2316" data-name="Path 2316" class="cls-2" d="M252.48,74.56a4.31,4.31,0,0,0-1,1c-.36.55-.44,1.24-.75,1.82-.66,1.24-2.22,1.68-3.2,2.7a1,1,0,0,0-.3.52,1.1,1.1,0,0,0,.26.76l4.69,7.38c1.56.14,3.06-.84,4.62-.71a4.63,4.63,0,0,0,1.74.07,4.54,4.54,0,0,0,1.11-.68c.94-.59,2.18-.66,3-1.43a4.09,4.09,0,0,0,.84-3,12.53,12.53,0,0,0-.28-2.73c-.69-2.83-2.86-5-4.21-7.51-.67-1.22-1-1.93-2.42-1.1S253.81,73.6,252.48,74.56Z"/><path id="Path_2317" data-name="Path 2317" class="cls-2" d="M309.45,70.84a10.74,10.74,0,0,1,2.35,2.06c.72.92,1.12,2,1.81,3a33.88,33.88,0,0,0,2.33,2.47,19.29,19.29,0,0,1,2.68,4.36,64.85,64.85,0,0,1-6.07,6.86,1.92,1.92,0,0,1-.92.61,1.5,1.5,0,0,1-1.3-.53c-.34-.36-.58-.8-.9-1.16a4.63,4.63,0,0,0-2.87-1.39,19.58,19.58,0,0,0-3.25,0,1.26,1.26,0,0,1-.69-.11,1.16,1.16,0,0,1-.38-.44c-1.27-2.16-.86-4.87-.41-7.34l1-5.66a12.72,12.72,0,0,1,.86-3.14c.39-.83,1.26-2.24,2.33-2S308.54,70.18,309.45,70.84Z"/><ellipse id="Ellipse_439" data-name="Ellipse 439" class="cls-12" cx="121.28" cy="92.32" rx="15.64" ry="15.67"/><path id="Path_2318" data-name="Path 2318" class="cls-13" d="M121.28,74A18.69,18.69,0,1,0,140,92.68,18.68,18.68,0,0,0,121.28,74Zm-3.84,28.65-9.58-9.58,2.69-2.68,6.9,6.9L132,82.71l2.69,2.69-17.26,17.24Z"/></g></g></g></svg>