<svg xmlns="http://www.w3.org/2000/svg" viewBox="0 0 339.63 204.06"><defs><style>.cls-1{fill:#46455b;}.cls-2{fill:#fea01a;}.cls-3{fill:#f2f2f2;}.cls-4{fill:#fff;}.cls-5{fill:none;stroke:#3f3d56;stroke-miterlimit:10;}.cls-6{fill:#2f2e41;}.cls-7{fill:#3f3d56;}.cls-8{fill:#fbbebe;}.cls-9{opacity:0.1;isolation:isolate;}</style></defs><title>3</title><g id="Layer_2" data-name="Layer 2"><g id="Layer_1-2" data-name="Layer 1"><g id="Group_454" data-name="Group 454"><path id="Path_2345" data-name="Path 2345" class="cls-1" d="M.49,11.18c0,21.14,13.27,38.26,29.66,38.26"/><path id="Path_2346" data-name="Path 2346" class="cls-2" d="M30.15,49.44c0-21.39,14.81-38.69,33.1-38.69"/><path id="Path_2347" data-name="Path 2347" class="cls-2" d="M11.24,13.09c0,20.09,8.46,36.35,18.91,36.35"/><path id="Path_2348" data-name="Path 2348" class="cls-1" d="M30.15,49.44C30.15,22.11,47.26,0,68.41,0"/><rect id="Rectangle_967" data-name="Rectangle 967" class="cls-3" x="15.87" y="57.17" width="258.26" height="146.35" rx="26.88" ry="26.88"/><rect id="Rectangle_968" data-name="Rectangle 968" class="cls-4" x="10.67" y="77.79" width="258.26" height="20.44"/><path id="Rectangle_969" data-name="Rectangle 969" class="cls-4" d="M51.56,165.67H238.08a5,5,0,0,1,5,5h0a5,5,0,0,1-5,5H51.56a5,5,0,0,1-5-5h0A5,5,0,0,1,51.56,165.67Z"/><rect id="Rectangle_970" data-name="Rectangle 970" class="cls-5" x="21.61" y="49.28" width="258.26" height="146.35" rx="26.88" ry="26.88"/><rect id="Rectangle_971" data-name="Rectangle 971" class="cls-5" x="21.43" y="71.34" width="258.26" height="20.44"/><rect id="Rectangle_972" data-name="Rectangle 972" class="cls-2" x="30.4" y="122.99" width="33" height="27.26" rx="8.76" ry="8.76"/><rect id="Rectangle_973" data-name="Rectangle 973" class="cls-5" x="34.34" y="118.33" width="33" height="27.26" rx="8.76" ry="8.76"/><path id="Rectangle_974" data-name="Rectangle 974" class="cls-5" d="M57.3,160.65H243.82a5,5,0,0,1,5,5h0a5,5,0,0,1-5,5H57.3a5,5,0,0,1-5-5h0A5,5,0,0,1,57.3,160.65Z"/><line id="Line_36" data-name="Line 36" class="cls-5" y1="203.51" x2="307.3" y2="203.51"/><path id="Path_2349" data-name="Path 2349" class="cls-3" d="M337.81,160.26l-8.67,8.29a1.64,1.64,0,0,1-2.16.1,119.66,119.66,0,0,1-22.09-23.09,1.65,1.65,0,0,1,.2-2.15l8.72-8.34a1.63,1.63,0,0,1,2.32.05,1.46,1.46,0,0,1,.16.19c6.36,9.09,13.4,16.71,21.34,22.43A1.64,1.64,0,0,1,338,160a2.2,2.2,0,0,1-.2.23Z"/><path id="Path_2350" data-name="Path 2350" class="cls-5" d="M338.63,157.49,330,165.77a1.63,1.63,0,0,1-2.16.1,119.37,119.37,0,0,1-22.09-23.09,1.65,1.65,0,0,1,.2-2.15l8.72-8.34a1.65,1.65,0,0,1,2.32.05,1.56,1.56,0,0,1,.16.2c6.36,9.08,13.4,16.71,21.34,22.43a1.64,1.64,0,0,1,.38,2.29,2.09,2.09,0,0,1-.2.22Z"/><ellipse id="Ellipse_443" data-name="Ellipse 443" class="cls-2" cx="322.42" cy="151.15" rx="2.87" ry="5.38" transform="translate(-15.1 264.65) rotate(-43.7)"/><ellipse id="Ellipse_444" data-name="Ellipse 444" class="cls-5" cx="322.21" cy="149.37" rx="2.87" ry="5.38" transform="translate(-13.93 264.01) rotate(-43.7)"/><path id="Path_2351" data-name="Path 2351" class="cls-3" d="M332.31,131.16,330.49,143a1.65,1.65,0,0,1-1.65,1.41,119.51,119.51,0,0,1-31.59-4.87,1.62,1.62,0,0,1-1.15-1.82l1.83-11.93a1.65,1.65,0,0,1,1.88-1.37l.24,0c10.58,3.34,20.81,5.1,30.59,4.8a1.64,1.64,0,0,1,1.69,1.59,1.51,1.51,0,0,1,0,.3Z"/><path id="Path_2352" data-name="Path 2352" class="cls-5" d="M331.27,128.46l-1.82,11.85a1.65,1.65,0,0,1-1.65,1.4,119.37,119.37,0,0,1-31.58-4.87,1.64,1.64,0,0,1-1.16-1.82l1.84-11.93a1.64,1.64,0,0,1,1.87-1.37l.24,0c10.58,3.33,20.81,5.09,30.59,4.79a1.65,1.65,0,0,1,1.69,1.59,1.08,1.08,0,0,1,0,.31Z"/><ellipse id="Ellipse_445" data-name="Ellipse 445" class="cls-2" cx="314.56" cy="133.29" rx="2.87" ry="5.38" transform="translate(134.96 423.91) rotate(-81.25)"/><ellipse id="Ellipse_446" data-name="Ellipse 446" class="cls-5" cx="313.31" cy="132.01" rx="2.87" ry="5.38" transform="translate(135.16 421.58) rotate(-81.25)"/><circle id="Ellipse_447" data-name="Ellipse 447" class="cls-6" cx="280.69" cy="28.15" r="6.16"/><path id="Path_2353" data-name="Path 2353" class="cls-6" d="M286.16,31.35a6.16,6.16,0,0,0-1-8.26c.15.09.3.18.45.29a6.16,6.16,0,0,1-7.17,10l-.42-.33a6.16,6.16,0,0,0,8.14-1.72Z"/><circle id="Ellipse_448" data-name="Ellipse 448" class="cls-6" cx="279.89" cy="41.28" r="11.25"/><path id="Path_2354" data-name="Path 2354" class="cls-7" d="M282,58.42a15.46,15.46,0,0,0-2.14-2.14s-10.72-3-12.86-.8a3.87,3.87,0,0,0-.8,4.55L276.14,63Z"/><path id="Path_2355" data-name="Path 2355" class="cls-8" d="M280.56,51.59s-2.41,6.7,0,7.23-12.86,3-12.86,3l-2.41-4.55s8.3-4.29,7.23-10.18Z"/><path id="Path_2356" data-name="Path 2356" class="cls-9" d="M280.56,51.59s-2.41,6.7,0,7.23-12.86,3-12.86,3l-2.41-4.55s8.3-4.29,7.23-10.18Z"/><path id="Path_2357" data-name="Path 2357" class="cls-8" d="M253.21,72.49l1.26,16.86a98.26,98.26,0,0,0,2,24.07s-.25,13.82,4.33,13.73.71-16.33.71-16.33L260.73,76Z"/><path id="Path_2358" data-name="Path 2358" class="cls-8" d="M296.9,72.22,298,89.09a97.89,97.89,0,0,1,1.34,24.11s2.14,13.66-2.41,14.2S294,111.33,294,111.33l-4-34.56Z"/><path id="Path_2359" data-name="Path 2359" class="cls-8" d="M275.2,122.84s2.41,27.86,1.61,29.47,0,30.54,0,30.54.8,11,.27,11-5.1-1.61-5.1-1.61-3.48-13.66-4.28-16.34-.8-16.34-.8-22S261.54,125,261.54,125Z"/><path id="Path_2360" data-name="Path 2360" class="cls-9" d="M275.2,122.84s2.41,27.86,1.61,29.47,0,30.54,0,30.54.8,11,.27,11-5.1-1.61-5.1-1.61-3.48-13.66-4.28-16.34-.8-16.34-.8-22S261.54,125,261.54,125Z"/><path id="Path_2361" data-name="Path 2361" class="cls-6" d="M270.38,192.49s4.28-2.68,5.36-1.07a10.23,10.23,0,0,0,2.14,2.41l.53,8.94s-3.12-.42-3.65.39-4.65,1.39-7.33.31,0-6.16,0-6.16Z"/><path id="Path_2362" data-name="Path 2362" class="cls-8" d="M293.71,119.2s-.29,9-3.78,15.16-7.5,11.25-7,16.07,4,2.95,1.87,23.3c0,0-1.34,8.3,0,12.59s-6.43,2.68-6.43,2.68-1.33-17.68-2.41-20.09-5.62-18.48-4-25.18,6.43-24.11,6.43-24.11Z"/><path id="Path_2363" data-name="Path 2363" class="cls-6" d="M279,185s3.75.27,4.82.54a1.49,1.49,0,0,0,1.61-.54s1.34,8.3,2.14,10.18-.8,7.23-4.82,7.23-5.09-2.41-5.09-3.21V188.74l-.27-2.41S279,185.8,279,185Z"/><circle id="Ellipse_449" data-name="Ellipse 449" class="cls-8" cx="279.35" cy="44.22" r="9.64"/><path id="Path_2364" data-name="Path 2364" class="cls-7" d="M279.89,56.28s.13,3.35-5.23,2.54-7.76-3.21-7.76-3.21-11.79,2.14-12.59,6.7,5.08,11.51,5.08,11.51,0,4.83.8,6.7-3.75,16.34-.8,17.15,4.83.8,10.72,2.14,12.05,1.61,13.93,0a10.29,10.29,0,0,1,6.43-2.14c1.87,0,3.21-3,1.87-4.29a12.44,12.44,0,0,1-2.68-6.16c0-1.34,1.88-6.43.8-8.3L294,60.44s-3.75-2.95-5.9-3.22S279.89,56.28,279.89,56.28Z"/><path id="Path_2365" data-name="Path 2365" class="cls-7" d="M291.81,60.16l2,.14s5.76,13.52,4.42,14.33-8.58,4.55-9.38,4.28S291.81,60.16,291.81,60.16Z"/><path id="Path_2366" data-name="Path 2366" class="cls-7" d="M257,61.23l-2.27.14s-2.28,12.72-2.55,13.53,8.84,4.55,9.65,4S257,61.23,257,61.23Z"/><path id="Path_2367" data-name="Path 2367" class="cls-6" d="M289.93,95.79l2.9,5.91s3.06,19.59,1,19.83-14.36-1.1-15.7.78-2.41,2.14-2.41,2.14-14.2,3-15.8,1.07,0-26.25,1.88-28.12c0,0,13.12,3.21,15,1.87S289.93,95.79,289.93,95.79Z"/><path id="Path_2368" data-name="Path 2368" class="cls-6" d="M285.19,36l.46.29a11.25,11.25,0,0,0-11.6,19.25l-.47-.26A11.25,11.25,0,1,1,285.09,36l.1.06Z"/><path id="Path_2369" data-name="Path 2369" class="cls-6" d="M273.78,36l-.45.29a11.25,11.25,0,0,1,11.6,19.25l.46-.26A11.25,11.25,0,1,0,273.89,36l-.11.06Z"/><ellipse id="Ellipse_450" data-name="Ellipse 450" class="cls-6" cx="279.89" cy="38.6" rx="10.18" ry="6.43"/></g></g></g></svg>