<svg xmlns="http://www.w3.org/2000/svg" viewBox="0 0 22 23.17"><defs><style>.cls-1{fill:none;}.cls-2{fill:#fea01a;}</style></defs><title>PRIVACY ICON</title><g id="Layer_2" data-name="Layer 2"><g id="Layer_1-2" data-name="Layer 1"><g id="Lock"><rect id="Rectangle_118" data-name="Rectangle 118" class="cls-1" y="0.59" width="22" height="22"/><path id="Path_49" data-name="Path 49" class="cls-2" d="M11,11.59a2.9,2.9,0,1,1-2.9,2.9,2.9,2.9,0,0,1,2.9-2.9ZM11,2.9A2.9,2.9,0,0,0,8.1,5.8h5.79A2.9,2.9,0,0,0,11,2.9Zm7.24,20.27H3.77a2.9,2.9,0,0,1-2.9-2.9V8.69a2.9,2.9,0,0,1,2.9-2.9H5.21a5.79,5.79,0,0,1,11.58,0h1.45a2.9,2.9,0,0,1,2.9,2.9V20.27a2.9,2.9,0,0,1-2.9,2.9Z"/></g></g></g></svg>