<svg xmlns="http://www.w3.org/2000/svg" viewBox="0 0 17.81 17.81"><title>time black</title><g id="Layer_2" data-name="Layer 2"><g id="Layer_1-2" data-name="Layer 1"><path id="Path_13" data-name="Path 13" d="M2.67,2.67A8.12,8.12,0,0,1,8.9,0a8.09,8.09,0,0,1,6.23,2.67A8.07,8.07,0,0,1,17.8,8.9a8.06,8.06,0,0,1-2.67,6.23A8.06,8.06,0,0,1,8.9,17.8a8.05,8.05,0,0,1-6.22-2.67A8.87,8.87,0,0,1,0,8.9,8.12,8.12,0,0,1,2.67,2.67ZM12.9,12.9l1-1-3.7-3.71L8.9,2.23H7.42V8.9a1.35,1.35,0,0,0,.44,1,.57.57,0,0,0,.3.15Z"/></g></g></svg>