<svg xmlns="http://www.w3.org/2000/svg" viewBox="0 0 275.05 316.13"><defs><style>.cls-1,.cls-3{fill:#fea01a;}.cls-1{opacity:0.5;}.cls-2{fill:#fff;}</style></defs><title>user icon</title><g id="Layer_2" data-name="Layer 2"><g id="Layer_1-2" data-name="Layer 1"><path class="cls-1" d="M268.89,243.5a39.57,39.57,0,0,0-2.82-46.33,72.46,72.46,0,0,0-55.92-26.29H64.9A72.47,72.47,0,0,0,9,197.17,39.57,39.57,0,0,0,6.16,243.5a155.11,155.11,0,0,0,262.73,0Z"/><path class="cls-1" d="M206.83,69.3a69.25,69.25,0,0,1-32.19,58.53l-2.16,1.32-2.2,1.24-1.54.79-1.55.76c-.58.28-1.16.55-1.75.81s-.94.41-1.41.6l-1.62.65c-.54.21-1.09.41-1.63.6s-.81.29-1.21.41-.71.25-1.06.35-.9.29-1.35.41-1.12.34-1.69.49c-.81.22-1.63.42-2.45.6-.33.08-.66.16-1,.21a8.62,8.62,0,0,1-1,.21c-.41.09-.81.17-1.22.24-.58.11-1.19.2-1.78.3l-1.53.21h-.12c-.59.08-1.17.15-1.75.2-1.16.13-2.33.22-3.52.27-.57,0-1.15.06-1.73.07l-1.83,0c-1.28,0-2.55,0-3.82-.1l-1.52-.1c-.92-.07-1.85-.16-2.77-.27-.67-.08-1.34-.16-2-.27-.83-.12-1.65-.25-2.47-.41-1.2-.22-2.39-.48-3.56-.76l-.28-.07A69.32,69.32,0,1,1,206.83,69.3Z"/><polygon class="cls-2" points="107.93 171.7 109.11 175.12 134.55 191.66 123.31 211.63 101.42 184.82 107.93 171.7"/><polygon class="cls-2" points="167.12 171.7 165.94 175.12 140.5 191.66 151.74 211.63 173.63 184.82 167.12 171.7"/><polygon class="cls-3" points="133.65 193.28 141.41 193.28 146.38 202.12 143.05 207.66 131.72 207.66 128.45 202.5 133.65 193.28"/><polygon class="cls-3" points="131.72 207.66 123.22 302.82 137.38 315.84 151.54 302.82 143.05 207.66 131.72 207.66"/></g></g></svg>