<svg xmlns="http://www.w3.org/2000/svg" xmlns:xlink="http://www.w3.org/1999/xlink" viewBox="0 0 280.35 232.5"><defs><style>.cls-1,.cls-3{fill:#fea01a;}.cls-1,.cls-12{opacity:0.1;}.cls-1,.cls-12,.cls-15{isolation:isolate;}.cls-2{fill:none;stroke:#535461;stroke-miterlimit:10;stroke-width:2px;}.cls-4{fill:#ffd037;}.cls-5{fill:url(#linear-gradient);}.cls-6{fill:#f7f7fd;}.cls-7{fill:#e2e2ec;}.cls-8{fill:#fff;}.cls-9{fill:#fc6681;}.cls-10{fill:url(#linear-gradient-2);}.cls-11{fill:#db8b8b;}.cls-13{fill:#2e3037;}.cls-14{fill:#474463;}.cls-15{opacity:0.05;}.cls-16{fill:#472727;}</style><linearGradient id="linear-gradient" x1="-354.82" y1="616.96" x2="-354.82" y2="617.96" gradientTransform="matrix(165.66, 0, 0, -192.35, 58919.59, 118873.95)" gradientUnits="userSpaceOnUse"><stop offset="0" stop-color="gray" stop-opacity="0.25"/><stop offset="0.54" stop-color="gray" stop-opacity="0.12"/><stop offset="1" stop-color="gray" stop-opacity="0.1"/></linearGradient><linearGradient id="linear-gradient-2" x1="-353" y1="616.88" x2="-353" y2="617.88" gradientTransform="matrix(44.84, 0, 0, -177.64, 16065.76, 109802.64)" xlink:href="#linear-gradient"/></defs><title>2</title><g id="Layer_2" data-name="Layer 2"><g id="Layer_1-2" data-name="Layer 1"><g id="Group_451" data-name="Group 451"><path id="Path_2229" data-name="Path 2229" class="cls-1" d="M261.84,128.46c-10.77,17.42-8.75,41.15-4,59.87,1.58,6.26,3.4,12.87,2.05,19.89-1.65,8.57-7.69,15.3-13.79,19.16-11.13,7-23.84,6.81-33.1-.52-8-6.33-13.26-17.37-21.42-23.37-13.64-10-32.38-4-48.65,5.43-11.51,6.61-24.17,15-34.8,10.27-7.48-3.35-12.15-12.8-14.33-23.07-1-5-1.68-10.38-4.1-14.16a15.8,15.8,0,0,0-5.45-5c-18.65-11.25-43.89-1.84-61.88-14.58C10.2,153.79,3.3,136,1,117S.63,77.72,3,57.71c1.66-14.22,3.92-29.44,11.38-41C22.24,4.46,34.7-1,45.52.15s20.22,8,28.32,16.4C84,27,93.09,40.4,106.2,43.78c8.92,2.3,18.67-.36,28.16-1.87,15.84-2.52,31.47-1.8,47-.85,14.86.91,29.8,2,43.64,7.26,9.79,3.7,17.31,11.41,26.45,16.42,6,3.26,12.68,3.68,18.23,8a27.41,27.41,0,0,1,10,27.79C277.06,112.47,267.55,119.22,261.84,128.46Z"/><path id="Path_2230" data-name="Path 2230" class="cls-2" d="M192.92,89.09s29.32-24.57,35.84-37a177,177,0,0,1,14.82-23.06"/><path id="Path_2231" data-name="Path 2231" class="cls-3" d="M239.73,56.76,227,53.9S230,67.28,239.73,56.76Z"/><path id="Path_2232" data-name="Path 2232" class="cls-3" d="M220.35,43.11,227.65,54S213.37,55.07,220.35,43.11Z"/><path id="Path_2233" data-name="Path 2233" class="cls-3" d="M244.72,46.49l-11.59-2S240.41,55.53,244.72,46.49Z"/><path id="Path_2234" data-name="Path 2234" class="cls-3" d="M227.56,36.72l5.71,7.48S223.17,45.16,227.56,36.72Z"/><path id="Path_2235" data-name="Path 2235" class="cls-3" d="M239.12,35.23s9.87.47,11,1.41-1.47,6.48-5.22,5.57S239.12,35.23,239.12,35.23Z"/><path id="Path_2236" data-name="Path 2236" class="cls-3" d="M235.18,26.41s4,7.34,3.88,8.74-6.15,3-7.36-2.32S235.18,26.41,235.18,26.41Z"/><circle id="Ellipse_418" data-name="Ellipse 418" class="cls-4" cx="245.1" cy="31.19" r="2.74"/><circle id="Ellipse_419" data-name="Ellipse 419" class="cls-4" cx="240.8" cy="28.37" r="2.74"/><path id="Path_2237" data-name="Path 2237" class="cls-3" d="M101.46,185.41s4.7-14-25.13-30.88c0,0-30.29-8.84-27.19-39.17,0,0-34.92,25.58-11.3,58.17s44,25.47,44,25.47Z"/><path id="Path_2238" data-name="Path 2238" class="cls-2" d="M92.36,191.73S77.81,176,63.85,169.92a28.19,28.19,0,0,1-7.58-5,34.69,34.69,0,0,1-10.48-32.23l3.35-17.28"/><rect id="Rectangle_913" data-name="Rectangle 913" class="cls-5" x="56.05" y="9.63" width="165.66" height="192.35"/><rect id="Rectangle_914" data-name="Rectangle 914" class="cls-6" x="57.98" y="11.87" width="161.8" height="187.87"/><rect id="Rectangle_915" data-name="Rectangle 915" class="cls-7" x="67.76" y="33.05" width="40.9" height="3.26"/><rect id="Rectangle_916" data-name="Rectangle 916" class="cls-7" x="67.76" y="41.01" width="69.86" height="3.26"/><rect id="Rectangle_917" data-name="Rectangle 917" class="cls-8" x="183.01" y="29.94" width="29.03" height="25.05"/><path id="Path_2239" data-name="Path 2239" class="cls-7" d="M211.89,30.08V54.84H183.14V30.08h28.75m.29-.29H182.85V55.13h29.33Z"/><rect id="Rectangle_918" data-name="Rectangle 918" class="cls-8" x="153.69" y="29.94" width="29.03" height="25.05"/><path id="Path_2240" data-name="Path 2240" class="cls-7" d="M182.56,30.08V54.84H153.82V30.08h28.74m.29-.29H153.53V55.13h29.32Z"/><rect id="Rectangle_919" data-name="Rectangle 919" class="cls-8" x="183.01" y="55.28" width="29.03" height="25.05"/><path id="Path_2241" data-name="Path 2241" class="cls-7" d="M211.89,55.42V80.18H183.14V55.42h28.75m.29-.29H182.85V80.47h29.33Z"/><rect id="Rectangle_920" data-name="Rectangle 920" class="cls-8" x="153.69" y="55.28" width="29.03" height="25.05"/><path id="Path_2242" data-name="Path 2242" class="cls-7" d="M182.56,55.42V80.18H153.82V55.42h28.74m.29-.29H153.53V80.47h29.32Z"/><rect id="Rectangle_921" data-name="Rectangle 921" class="cls-8" x="124.37" y="55.28" width="29.03" height="25.05"/><path id="Path_2243" data-name="Path 2243" class="cls-7" d="M153.26,55.42V80.18H124.51V55.42h28.74m.29-.29H124.22V80.47h29.33Z"/><rect id="Rectangle_922" data-name="Rectangle 922" class="cls-8" x="95.05" y="55.28" width="29.03" height="25.05"/><path id="Path_2244" data-name="Path 2244" class="cls-7" d="M123.93,55.42V80.18H95.19V55.42h28.74m.29-.29H94.9V80.47h29.33Z"/><rect id="Rectangle_923" data-name="Rectangle 923" class="cls-8" x="65.73" y="55.28" width="29.03" height="25.05"/><path id="Path_2245" data-name="Path 2245" class="cls-7" d="M94.61,55.42V80.18H65.87V55.42H94.61m.29-.29H65.58V80.47H94.91Z"/><rect id="Rectangle_924" data-name="Rectangle 924" class="cls-8" x="183.01" y="80.61" width="29.03" height="25.05"/><path id="Path_2246" data-name="Path 2246" class="cls-7" d="M211.89,80.76v24.76H183.14V80.76h28.75m.29-.29H182.85v25.34h29.33Z"/><rect id="Rectangle_925" data-name="Rectangle 925" class="cls-8" x="153.69" y="80.61" width="29.03" height="25.05"/><path id="Path_2247" data-name="Path 2247" class="cls-7" d="M182.56,80.76v24.76H153.82V80.76h28.74m.29-.29H153.53v25.34h29.32Z"/><rect id="Rectangle_926" data-name="Rectangle 926" class="cls-8" x="124.37" y="80.61" width="29.03" height="25.05"/><path id="Path_2248" data-name="Path 2248" class="cls-7" d="M153.26,80.76v24.76H124.51V80.76h28.74m.29-.29H124.22v25.34h29.33Z"/><rect id="Rectangle_927" data-name="Rectangle 927" class="cls-8" x="95.05" y="80.61" width="29.03" height="25.05"/><path id="Path_2249" data-name="Path 2249" class="cls-7" d="M123.93,80.76v24.76H95.19V80.76h28.74m.29-.29H94.9v25.34h29.33Z"/><rect id="Rectangle_928" data-name="Rectangle 928" class="cls-8" x="65.73" y="80.61" width="29.03" height="25.05"/><path id="Path_2250" data-name="Path 2250" class="cls-7" d="M94.61,80.76v24.76H65.87V80.76H94.61m.29-.29H65.58v25.34H94.91Z"/><rect id="Rectangle_929" data-name="Rectangle 929" class="cls-8" x="183.01" y="105.95" width="29.03" height="25.05"/><path id="Path_2251" data-name="Path 2251" class="cls-7" d="M211.89,106.1v24.76H183.14V106.1h28.75m.29-.29H182.85v25.34h29.33Z"/><rect id="Rectangle_930" data-name="Rectangle 930" class="cls-8" x="153.69" y="105.95" width="29.03" height="25.05"/><path id="Path_2252" data-name="Path 2252" class="cls-7" d="M182.56,106.1v24.76H153.82V106.1h28.74m.29-.29H153.53v25.34h29.32Z"/><rect id="Rectangle_931" data-name="Rectangle 931" class="cls-8" x="124.37" y="105.95" width="29.03" height="25.05"/><path id="Path_2253" data-name="Path 2253" class="cls-7" d="M153.26,106.1v24.76H124.51V106.1h28.74m.29-.29H124.22v25.34h29.33Z"/><rect id="Rectangle_932" data-name="Rectangle 932" class="cls-8" x="95.05" y="105.95" width="29.03" height="25.05"/><path id="Path_2254" data-name="Path 2254" class="cls-7" d="M123.93,106.1v24.76H95.19V106.1h28.74m.29-.29H94.9v25.34h29.33Z"/><rect id="Rectangle_933" data-name="Rectangle 933" class="cls-8" x="65.73" y="105.95" width="29.03" height="25.05"/><path id="Path_2255" data-name="Path 2255" class="cls-7" d="M94.61,106.1v24.76H65.87V106.1H94.61m.29-.29H65.58v25.34H94.91Z"/><rect id="Rectangle_934" data-name="Rectangle 934" class="cls-8" x="183.01" y="131.29" width="29.03" height="25.05"/><path id="Path_2256" data-name="Path 2256" class="cls-7" d="M211.89,131.44v24.75H183.14V131.44h28.75m.29-.29H182.85v25.33h29.33Z"/><rect id="Rectangle_935" data-name="Rectangle 935" class="cls-8" x="153.69" y="131.29" width="29.03" height="25.05"/><path id="Path_2257" data-name="Path 2257" class="cls-7" d="M182.56,131.44v24.75H153.82V131.44h28.74m.29-.29H153.53v25.33h29.32Z"/><rect id="Rectangle_936" data-name="Rectangle 936" class="cls-8" x="124.37" y="131.29" width="29.03" height="25.05"/><path id="Path_2258" data-name="Path 2258" class="cls-7" d="M153.26,131.44v24.75H124.51V131.44h28.74m.29-.29H124.22v25.33h29.33Z"/><rect id="Rectangle_937" data-name="Rectangle 937" class="cls-8" x="95.05" y="131.29" width="29.03" height="25.05"/><path id="Path_2259" data-name="Path 2259" class="cls-7" d="M123.93,131.44v24.75H95.19V131.44h28.74m.29-.29H94.9v25.33h29.33Z"/><rect id="Rectangle_938" data-name="Rectangle 938" class="cls-8" x="65.73" y="131.29" width="29.03" height="25.05"/><path id="Path_2260" data-name="Path 2260" class="cls-7" d="M94.61,131.44v24.75H65.87V131.44H94.61m.29-.29H65.58v25.33H94.91Z"/><rect id="Rectangle_939" data-name="Rectangle 939" class="cls-8" x="183.01" y="156.63" width="29.03" height="25.05"/><path id="Path_2261" data-name="Path 2261" class="cls-7" d="M211.89,156.77v24.76H183.14V156.77h28.75m.29-.29H182.85v25.34h29.33Z"/><rect id="Rectangle_940" data-name="Rectangle 940" class="cls-8" x="153.69" y="156.63" width="29.03" height="25.05"/><path id="Path_2262" data-name="Path 2262" class="cls-7" d="M182.56,156.77v24.76H153.82V156.77h28.74m.29-.29H153.53v25.34h29.32Z"/><rect id="Rectangle_941" data-name="Rectangle 941" class="cls-8" x="124.37" y="156.63" width="29.03" height="25.05"/><path id="Path_2263" data-name="Path 2263" class="cls-7" d="M153.26,156.77v24.76H124.51V156.77h28.74m.29-.29H124.22v25.34h29.33Z"/><rect id="Rectangle_942" data-name="Rectangle 942" class="cls-8" x="95.05" y="156.63" width="29.03" height="25.05"/><path id="Path_2264" data-name="Path 2264" class="cls-7" d="M123.93,156.77v24.76H95.19V156.77h28.74m.29-.29H94.9v25.34h29.33Z"/><rect id="Rectangle_943" data-name="Rectangle 943" class="cls-8" x="65.73" y="156.63" width="29.03" height="25.05"/><path id="Path_2265" data-name="Path 2265" class="cls-7" d="M94.61,156.77v24.76H65.87V156.77H94.61m.29-.29H65.58v25.34H94.91Z"/><path id="Path_2266" data-name="Path 2266" class="cls-3" d="M126.7,204.64a4.68,4.68,0,0,0,1.86-2.28,1.94,1.94,0,0,0-1.3-2.32,4.1,4.1,0,0,0-3.42,1,5,5,0,0,1-3.32,1.31,3.72,3.72,0,0,0,1.56-3.87,1.47,1.47,0,0,0-.43-.78,2.47,2.47,0,0,0-2.65.12c-2.51,1.46-3.21,4.23-3.22,6.73a10.28,10.28,0,0,1,0-2.77,2.64,2.64,0,0,0-1.27-2.45,4.53,4.53,0,0,0-1.95-.38,4.63,4.63,0,0,0-3.15.74,2.2,2.2,0,0,0,.07,3.11l0,.05a12.2,12.2,0,0,0,3.27,2.13,6.76,6.76,0,0,1,2.32,1.82,1.41,1.41,0,0,1,.17.32h7.08a20.15,20.15,0,0,0,4.39-2.46Z"/><circle id="Ellipse_420" data-name="Ellipse 420" class="cls-9" cx="69.56" cy="59.09" r="1.65"/><circle id="Ellipse_421" data-name="Ellipse 421" class="cls-4" cx="73.69" cy="59.09" r="1.65"/><circle id="Ellipse_422" data-name="Ellipse 422" class="cls-3" cx="128" cy="83.62" r="1.65"/><circle id="Ellipse_423" data-name="Ellipse 423" class="cls-3" cx="132.13" cy="83.62" r="1.65"/><circle id="Ellipse_424" data-name="Ellipse 424" class="cls-3" cx="216.48" cy="131.03" r="1.65"/><circle id="Ellipse_425" data-name="Ellipse 425" class="cls-3" cx="217.31" cy="129.1" r="1.65"/><circle id="Ellipse_426" data-name="Ellipse 426" class="cls-3" cx="218.13" cy="127.44" r="1.65"/><circle id="Ellipse_427" data-name="Ellipse 427" class="cls-3" cx="187.26" cy="59.09" r="1.65"/><circle id="Ellipse_428" data-name="Ellipse 428" class="cls-3" cx="191.39" cy="59.09" r="1.65"/><circle id="Ellipse_429" data-name="Ellipse 429" class="cls-3" cx="195.53" cy="59.09" r="1.65"/><circle id="Ellipse_430" data-name="Ellipse 430" class="cls-3" cx="199.67" cy="59.09" r="1.65"/><circle id="Ellipse_431" data-name="Ellipse 431" class="cls-3" cx="187.26" cy="110.35" r="1.65"/><circle id="Ellipse_432" data-name="Ellipse 432" class="cls-3" cx="191.39" cy="110.35" r="1.65"/><circle id="Ellipse_433" data-name="Ellipse 433" class="cls-3" cx="195.53" cy="110.35" r="1.65"/><circle id="Ellipse_434" data-name="Ellipse 434" class="cls-3" cx="199.67" cy="110.35" r="1.65"/><circle id="Ellipse_435" data-name="Ellipse 435" class="cls-4" cx="98.78" cy="83.62" r="1.65"/><circle id="Ellipse_436" data-name="Ellipse 436" class="cls-9" cx="69.56" cy="108.7" r="1.65"/><path id="Path_2267" data-name="Path 2267" class="cls-10" d="M215.05,135.18c1.82,1.07,4.65,1.77,8.23-.54l0,5.1c.25,3.49,4.58,16.24,4.58,16.24l3,10.48a82.22,82.22,0,0,1,3.35,22.8,21.76,21.76,0,0,0,1,7.17c1.62,4.39-.64,10-1.62,12.15a51.42,51.42,0,0,1-5,1.42,3,3,0,0,0-.45.13l0,0s-4.58,1.82-6.61,1.57c-1.52-.19-2.47,1.7-1.28,3.09a9.18,9.18,0,0,1-3,.4c-2-.25-3.05,3.25.76,4.25s25.43,0,25.43,0A3.08,3.08,0,0,0,245,216l2.7-.11s3.81-1.74,0-6.5l-.2.16-.82-2.4v-3.25s4.83-23.23,3.31-26-2.3-16.73-2.3-16.73l.52-15.23c1.38-2.85,2.08-7.3,2.44-10.79a22.92,22.92,0,0,0,1-5.12c.06-.82.11-1.68.15-2.57a17.3,17.3,0,0,0-1-5.75,57.27,57.27,0,0,1,5.76-7.23,7.41,7.41,0,0,0,2.29-6.49l-1.27-8.5-3.06-14.48c.39-4-.45-6.33-1.38-7.64.22-1.3.43-2.6.58-3.9a49.72,49.72,0,0,0-.89-17,11.4,11.4,0,0,0-2.4-5.4c-1.54-1.67-4-2.68-4.62-4.87a13.3,13.3,0,0,0-.35-1.64c-.56-1.43-2.32-2-3.87-2.13-2.75-.34-6.73-.59-9.37.49a11.34,11.34,0,0,0-5.4,5.06,3.8,3.8,0,0,0-.17,4.18,9.69,9.69,0,0,0,5.63,12.38c.06.19.11.38.16.56a9.16,9.16,0,0,1,.25,1.37c-.05.87-.1,1.76-.15,2.65,0,.12-.06.24-.09.36a64,64,0,0,0-6.39,3.26c1.53,2.24-.25,11.73-.25,11.73-3.82,2.25-7.63,8-3.56,14A14.91,14.91,0,0,1,224,111l-.64,9.77h0l-.12,2h.05l-.05.74.11,0v.8a11.83,11.83,0,0,0-6,4.43,15.43,15.43,0,0,1-2.66,3.26,2,2,0,0,0-.2,2.77,1.83,1.83,0,0,0,.5.42Zm30.7-25.94a9.39,9.39,0,0,1,.9-4.92l1.8,0c.06.42.14.83.22,1.19.52,2.2-1.54,3.26-2.92,3.7Z"/><path id="Path_2268" data-name="Path 2268" class="cls-11" d="M246.26,206l1,2.94-3.2,3.19-10.52,2.45-7.59-.74.5-2.69h0a3.23,3.23,0,0,1,2.41-2.37c3.11-.73,9.06-2.4,10.31-4.72Z"/><path id="Path_2269" data-name="Path 2269" class="cls-12" d="M246.26,206l1,2.94-3.2,3.19-10.52,2.45-7.59-.74.5-2.69h0a3.23,3.23,0,0,1,2.41-2.37c3.11-.73,9.06-2.4,10.31-4.72Z"/><path id="Path_2270" data-name="Path 2270" class="cls-13" d="M228.39,213.12l1.47-2-1.47-2.27s-4.4,1.78-6.36,1.53-2.93,3.2.74,4.16,24.47,0,24.47,0,3.67-1.71,0-6.36l-3.2,2.45s-5.38,2.93-8.07,2.44Z"/><path id="Path_2271" data-name="Path 2271" class="cls-11" d="M221.79,217.28l7.58.73,10.52-2.45,3.2-3.19-.26-.78-.37-1.09-.36-1.06-7.1-2a4.4,4.4,0,0,1-1.46,1.45c-2.3,1.58-6.44,2.72-8.87,3.29a1.4,1.4,0,0,0-.29.09,3.23,3.23,0,0,0-2.11,2.28Z"/><path id="Path_2272" data-name="Path 2272" class="cls-12" d="M221.79,217.27l7.58.74,10.52-2.45,3.2-3.19-.26-.78-2.92,2.25s-5.39,2.94-8.08,2.45h-7.6l1.47-2-1.32-2a3.22,3.22,0,0,0-2.1,2.28Z"/><path id="Path_2273" data-name="Path 2273" class="cls-13" d="M224.23,216.55l1.47-2-1.47-2.27s-4.4,1.78-6.36,1.54-2.93,3.19.74,4.16,24.47,0,24.47,0,3.67-1.72,0-6.36l-3.2,2.44s-5.38,2.94-8.07,2.45Z"/><path id="Path_2274" data-name="Path 2274" class="cls-11" d="M230.35,74.63s11.75,1.22,10-3.67a8.92,8.92,0,0,1-.36-4.32,12.06,12.06,0,0,1,2.08-5l-11,1.72a13.72,13.72,0,0,1,1.49,3.53C233.89,72.1,230.35,74.63,230.35,74.63Z"/><path id="Path_2275" data-name="Path 2275" class="cls-14" d="M250.42,130.42s-.25,10.52-2.7,15.66L247.23,161s.74,13.7,2.2,16.4-3.19,25.45-3.19,25.45v3.91s-7.84,2.94-10-.49l2.2-29.12-1-40.37Z"/><path id="Path_2276" data-name="Path 2276" class="cls-12" d="M250.42,130.42s-.25,10.52-2.7,15.66L247.23,161s.74,13.7,2.2,16.4-3.19,25.45-3.19,25.45v3.91s-7.84,2.94-10-.49l2.2-29.12-1-40.37Z"/><path id="Path_2277" data-name="Path 2277" class="cls-9" d="M255.31,96.65l1.47,3.92,1.22,8.32a7.34,7.34,0,0,1-2.2,6.36,69.37,69.37,0,0,0-6.85,9l-4.65-13.94s4.65-.73,3.92-3.91a46,46,0,0,1-.49-9.08Z"/><path id="Path_2278" data-name="Path 2278" class="cls-15" d="M255.31,96.65l1.47,3.92,1.22,8.32a7.34,7.34,0,0,1-2.2,6.36,69.37,69.37,0,0,0-6.85,9l-4.65-13.94s4.65-.73,3.92-3.91a46,46,0,0,1-.49-9.08Z"/><path id="Path_2279" data-name="Path 2279" class="cls-12" d="M233.56,208.94c3.14,4.93,8,2.14,8.89,1.58l-.35-1.08-7.1-2A4.46,4.46,0,0,1,233.56,208.94Z"/><path id="Path_2280" data-name="Path 2280" class="cls-14" d="M223.75,140c.24,3.43,4.4,15.9,4.4,15.9l2.93,10.27a82,82,0,0,1,3.23,22.34,21.73,21.73,0,0,0,.93,7c2,5.38-2,12.73-2,12.73,3.42,6.11,9.29,2,9.29,2v-3.91S247.22,185,246,180.82s-1.71-15.41-1.71-15.41V145.09A23,23,0,0,0,251,130.48c.06-.8.1-1.64.14-2.52.2-5.51-3.58-12-5-14.3l-.58-.87-21.61,8.57-.05,0v2.69Z"/><path id="Path_2281" data-name="Path 2281" class="cls-12" d="M231.08,63.37a14,14,0,0,1,1.5,3.54,9.56,9.56,0,0,0,7.44-.27,12.06,12.06,0,0,1,2.08-5Z"/><circle id="Ellipse_437" data-name="Ellipse 437" class="cls-11" cx="235.98" cy="57.5" r="9.54"/><path id="Path_2282" data-name="Path 2282" class="cls-12" d="M223.75,124.06l.1,0c10.26,2.11,23.14-8.58,23.14-8.58a12.24,12.24,0,0,1-.89-1.82c-.36-.56-.58-.88-.58-.88l-21.61,8.57-.06.86Z"/><path id="Path_2283" data-name="Path 2283" class="cls-9" d="M226.44,74.38s13.7-8.32,18.11-4.89l6.11,7.84s3.92,1.22,3.2,9l2.92,14.19-8.81,2.2s-5.14,4.89-1,12c0,0-13,10.76-23.24,8.56l.73-11.5a14.85,14.85,0,0,0-1.71-12.23c-3.92-5.88-.24-11.5,3.43-13.7C226.2,85.88,227.9,76.59,226.44,74.38Z"/><path id="Path_2284" data-name="Path 2284" class="cls-11" d="M225.7,124.3s-5.14,1-7.58,4.9a15.73,15.73,0,0,1-2.56,3.19,1.93,1.93,0,0,0-.14,2.74,1.79,1.79,0,0,0,.43.35c1.94,1.17,5.11,1.89,9.11-1.4C231.82,128.46,225.7,124.3,225.7,124.3Z"/><path id="Path_2285" data-name="Path 2285" class="cls-12" d="M233.29,79s4.89-.49,6.12,12.24,3.19,15.66,3.19,15.66,1.22,6.61-1.71,10.52-8.57,12.23-8.57,12.23-6.12,1.72-7.34-4.4l7.59-14.19s1.22-4.89-1.71-8.32S225.7,76.59,233.29,79Z"/><path id="Path_2286" data-name="Path 2286" class="cls-9" d="M232.79,78.3s4.9-.49,6.12,12.23,3.19,15.66,3.19,15.66,1.23,6.61-1.71,10.52S231.83,129,231.83,129s-6.12,1.71-7.34-4.4l7.58-14.19s1.23-4.9-1.71-8.32S225.21,75.85,232.79,78.3Z"/><path id="Path_2287" data-name="Path 2287" class="cls-12" d="M228.76,87.47s-.49,7.58,1.71,11.75,2.2,9.54,0,12.48"/><path id="Path_2288" data-name="Path 2288" class="cls-12" d="M227.54,78.18s2-2,7.58-2.2,8.08-2,8.08-2"/><path id="Path_2289" data-name="Path 2289" class="cls-12" d="M241.15,45.17c1.48.18,3.19.69,3.72,2.09a12.81,12.81,0,0,1,.34,1.61c.56,2.14,3,3.13,4.45,4.77a11.51,11.51,0,0,1,2.32,5.3,49.65,49.65,0,0,1,.87,16.62c-.48,4.06-1.45,8-1.73,12.13s.23,8.36,2.46,11.79a30,30,0,0,1,2.9,4.39c-1.4,1.13-3.34,1.3-5.15,1.36-2.1.07-4.21.07-6.31,0a6.84,6.84,0,0,1-3.21-.67,4.89,4.89,0,0,1-1.69-1.81,12.9,12.9,0,0,1-1.45-6.87c.06-2.37.43-4.72.47-7.1a6.21,6.21,0,0,0-.82-3.72,12.29,12.29,0,0,0-2-1.9c-2.61-2.32-3.52-6-3.61-9.54s.49-7,.2-10.49c-.12-1.37-.63-3-2-3.27a7.86,7.86,0,0,1-1.28-.16c-1.07-.42-1-1.94-1.28-3.05s-1.41-2.21-1.71-3.48c-.7-3,3.07-6.5,5.54-7.53S238.5,44.84,241.15,45.17Z"/><path id="Path_2290" data-name="Path 2290" class="cls-16" d="M241.39,44.68c1.49.18,3.2.69,3.72,2.09a12.81,12.81,0,0,1,.34,1.61c.56,2.14,3,3.13,4.45,4.77a11.51,11.51,0,0,1,2.32,5.3,49.65,49.65,0,0,1,.87,16.62c-.47,4.07-1.45,8.05-1.72,12.13s.22,8.36,2.45,11.79a28.5,28.5,0,0,1,2.9,4.39c-1.4,1.14-3.34,1.3-5.15,1.36-2.1.07-4.21.07-6.31,0a6.84,6.84,0,0,1-3.21-.67,5,5,0,0,1-1.68-1.81,12.91,12.91,0,0,1-1.46-6.87c.06-2.37.43-4.72.47-7.1a6.15,6.15,0,0,0-.82-3.72,11.56,11.56,0,0,0-2.05-1.9c-2.61-2.32-3.52-6-3.6-9.54s.49-7,.19-10.49c-.11-1.37-.63-3-2-3.27a6.79,6.79,0,0,1-1.27-.16c-1.08-.42-1-1.94-1.28-3.05s-1.41-2.21-1.71-3.48c-.71-3,3.06-6.5,5.53-7.53S238.74,44.35,241.39,44.68Z"/></g></g></g></svg>