<svg xmlns="http://www.w3.org/2000/svg" viewBox="0 0 232.72 185.16"><defs><style>.cls-1{fill:#f2f2f2;}.cls-2{fill:#3f3d56;}.cls-3{fill:#fea01a;}.cls-4{fill:#fff;}.cls-5{fill:#d0cde1;}.cls-6{fill:#a0616a;}.cls-7{fill:#575a89;}.cls-8{fill:#2f2e41;}.cls-9{opacity:0.1;isolation:isolate;}</style></defs><title>1</title><g id="Layer_2" data-name="Layer 2"><g id="Layer_1-2" data-name="Layer 1"><g id="Group_453" data-name="Group 453"><circle id="Ellipse_440" data-name="Ellipse 440" class="cls-1" cx="135.02" cy="167.24" r="17.78"/><path id="Path_2319" data-name="Path 2319" class="cls-1" d="M139,180.61a22.12,22.12,0,1,1,22.11-22.12A22.12,22.12,0,0,1,139,180.61Zm0-44a21.83,21.83,0,1,0,21.82,21.83A21.83,21.83,0,0,0,139,136.66Z"/><rect id="Rectangle_949" data-name="Rectangle 949" class="cls-2" x="103.29" y="24.1" width="111.14" height="63.19"/><path id="Path_2320" data-name="Path 2320" class="cls-2" d="M232.72,87.58H103v-74H232.72ZM103.59,87H232.13V14.17H103.59Z"/><circle id="Ellipse_441" data-name="Ellipse 441" class="cls-3" cx="158.87" cy="64.53" r="13.86"/><path id="Path_2321" data-name="Path 2321" class="cls-4" d="M161.52,65.49a17.91,17.91,0,0,1-2.8-5,17.67,17.67,0,0,1-2.8,5l2.51-.91v5.6H159v-5.6Z"/><path id="Path_2322" data-name="Path 2322" class="cls-5" d="M173.75,16.23H149.87V11.51h23.88l2.36,2.36Z"/><path id="Path_2323" data-name="Path 2323" class="cls-2" d="M150.17,16.23H126.29V11.51h23.88l2.36,2.36Z"/><path id="Path_2324" data-name="Path 2324" class="cls-3" d="M126.88,16.23H103V11.51h23.88l2.36,2.36Z"/><path id="Path_2325" data-name="Path 2325" class="cls-2" d="M21.1,184.86l-.32-.12c-.07,0-7-2.67-10.23-8.69S8.9,162.8,8.91,162.73L9,162.4l.31.12c.07,0,7,2.68,10.24,8.69s1.65,13.25,1.63,13.32Zm-10-9.09c2.74,5.09,8.21,7.69,9.59,8.29.27-1.49,1.09-7.49-1.65-12.57s-8.2-7.69-9.59-8.28C9.16,164.69,8.33,170.7,11.07,175.77Z"/><path id="Path_2326" data-name="Path 2326" class="cls-3" d="M13,174c5.82,3.5,8.07,10.46,8.07,10.46s-7.2,1.28-13-2.22S0,171.72,0,171.72,7.2,170.44,13,174Z"/><path id="Path_2327" data-name="Path 2327" class="cls-6" d="M84.9,83.79S95,89,91.29,93.93s-10.14-5.64-10.14-6.39S84.9,83.79,84.9,83.79Z"/><path id="Path_2328" data-name="Path 2328" class="cls-7" d="M73.64,70.27s6.76,8.26,8.64,9.39,3.38,2.25,3.38,2.62a11.38,11.38,0,0,0,1.5,2.26l-6,5.25s-6.76-9-7.51-9S73.64,70.27,73.64,70.27Z"/><path id="Path_2329" data-name="Path 2329" class="cls-6" d="M39.84,166.77l-4.5,7.51,6.76,3,6.38-1.87L44.72,166Z"/><path id="Path_2330" data-name="Path 2330" class="cls-8" d="M52.61,84.92l-3.76,35.67s-8.26,16.9-8.26,30.42-3,17.27-3,17.27l9.39,1.5,10.14-33.05L74,105.94,69.13,75.15l-8.26-3Z"/><path id="Path_2331" data-name="Path 2331" class="cls-8" d="M39.09,173.91s-2.82-3.94-2.82-2.81-5.44,13.7-.93,13.7,16.52-.75,18.77,0,9.77-.75,9-5.25-9.77-4.13-9.77-4.13-5.43-7.58-6.85-4.92l-1.41,2.66Z"/><path id="Path_2332" data-name="Path 2332" class="cls-6" d="M79.65,166.77l-4.51,7.51,6.76,3,6.38-1.87L84.53,166Z"/><path id="Path_2333" data-name="Path 2333" class="cls-8" d="M78.9,173.91s-2.82-3.57-2.82-2.44-5.44,13.33-.94,13.33,16.53-.75,18.78,0,9.76-.75,9-5.25-9.76-4.14-9.76-4.14-5.44-7.57-6.85-4.91l-1.42,2.66Z"/><path id="Path_2334" data-name="Path 2334" class="cls-8" d="M46.6,84.54a50.84,50.84,0,0,0,7.14,19.52c6,9.39,14.64,25.92,14.64,25.92s-.75,16.52,3.38,25.91,4.88,14.27,4.88,14.27l10.14-2.63S81.15,136,83.4,128.85s-8.63-44.31-8.63-44.31L64.63,75.9,51.48,74.4Z"/><circle id="Ellipse_442" data-name="Ellipse 442" class="cls-6" cx="68.24" cy="14.15" r="8.64"/><path id="Path_2335" data-name="Path 2335" class="cls-6" d="M61.19,14.58l-4.52,9.67L69.36,33s-1.5-10.46,1.32-13.12S61.19,14.58,61.19,14.58Z"/><path id="Path_2336" data-name="Path 2336" class="cls-7" d="M71,33.84S65,21.45,60.12,21.45,42.47,30.09,42.85,32a12.89,12.89,0,0,1,.37,3.38c0,1.13-2.63,1.13-.37,1.88s2.63,1.5,2.63,1.5L43.6,86.79s8.26,3,11.26,1.88,6-8.64,6-8.64-.75,10.14,2.25,9.77,14.27-1.13,14.65-2.63-2.26-34.55-2.26-34.55Z"/><path id="Path_2337" data-name="Path 2337" class="cls-6" d="M43.6,89.42s-4.51,16.52,1.88,15S50,89.79,50,89.79Z"/><path id="Path_2338" data-name="Path 2338" class="cls-7" d="M51.48,30.84,40.59,58.63s-1.5,3,0,5.25-.75,15.77.75,18.78,1.5,8.26,1.5,8.26l8.64.75,1.88-33,9.76-21S62.37,29,51.48,30.84Z"/><path id="Path_2339" data-name="Path 2339" class="cls-9" d="M54.3,29.9s-6.76,1.88-9,8.64Z"/><path id="Path_2340" data-name="Path 2340" class="cls-8" d="M62.58,18.09a13.08,13.08,0,0,1,2.5.34,6.29,6.29,0,0,0,6.75-4.71,3.65,3.65,0,0,1,.35-1.12,2.23,2.23,0,0,1,2.37-.72,18.72,18.72,0,0,0,2.56.62,3.91,3.91,0,0,0,3.38-1.91,6.55,6.55,0,0,0,.83-3.92l-.65.68a3.19,3.19,0,0,1-.29-1.8,2.09,2.09,0,0,0-2,.5c-.57.06-.14-1.06-.56-1.45a1,1,0,0,0-.7-.13c-1.22,0-2.2-.92-3.17-1.67A13.46,13.46,0,0,0,68.29.2a7.61,7.61,0,0,0-4.15.2,9.06,9.06,0,0,0-2.8,2,17.17,17.17,0,0,0-4.71,7,11.74,11.74,0,0,0-.05,6.82c.34,1.16,1.37,5.12,2.89,5.21C61.36,21.53,60.22,18.23,62.58,18.09Z"/><path id="Path_2341" data-name="Path 2341" class="cls-9" d="M63.2,45.71l-8.85,13L51.52,88.82Z"/><rect id="Rectangle_950" data-name="Rectangle 950" class="cls-2" x="0.11" y="184.57" width="138.86" height="0.59"/><path id="Path_2342" data-name="Path 2342" class="cls-3" d="M102.07,106.21,81.48,93C88.92,86.43,94.16,79.05,96,70.42l20.59,13.21A53.63,53.63,0,0,0,102.07,106.21Z"/><rect id="Rectangle_951" data-name="Rectangle 951" class="cls-2" x="103.18" y="75.03" width="0.59" height="12.68" transform="translate(-20.9 124.49) rotate(-57.3)"/><rect id="Rectangle_952" data-name="Rectangle 952" class="cls-2" x="101.91" y="77.01" width="0.59" height="12.68" transform="translate(-23.15 124.33) rotate(-57.3)"/><rect id="Rectangle_953" data-name="Rectangle 953" class="cls-2" x="100.63" y="79" width="0.59" height="12.68" transform="translate(-25.41 124.17) rotate(-57.3)"/><rect id="Rectangle_954" data-name="Rectangle 954" class="cls-2" x="99.36" y="80.98" width="0.59" height="12.68" transform="translate(-27.66 124.01) rotate(-57.3)"/><rect id="Rectangle_955" data-name="Rectangle 955" class="cls-2" x="98.08" y="82.97" width="0.59" height="12.68" transform="translate(-29.92 123.85) rotate(-57.3)"/><rect id="Rectangle_956" data-name="Rectangle 956" class="cls-2" x="96.81" y="84.95" width="0.59" height="12.68" transform="translate(-32.17 123.69) rotate(-57.3)"/><rect id="Rectangle_957" data-name="Rectangle 957" class="cls-2" x="95.54" y="86.94" width="0.59" height="12.68" transform="translate(-34.43 123.53) rotate(-57.3)"/><rect id="Rectangle_958" data-name="Rectangle 958" class="cls-2" x="94.26" y="88.92" width="0.59" height="12.68" transform="translate(-36.69 123.37) rotate(-57.3)"/><path id="Path_2343" data-name="Path 2343" class="cls-1" d="M106.12,102.15,82,98c4.31-8.94,6.28-17.77,4.6-26.43l24.11,4.19A53.61,53.61,0,0,0,106.12,102.15Z"/><rect id="Rectangle_959" data-name="Rectangle 959" class="cls-2" x="97.48" y="72.37" width="0.59" height="12.68" transform="translate(3.48 161.56) rotate(-80.14)"/><rect id="Rectangle_960" data-name="Rectangle 960" class="cls-2" x="97.08" y="74.69" width="0.59" height="12.68" transform="translate(0.86 163.08) rotate(-80.14)"/><rect id="Rectangle_961" data-name="Rectangle 961" class="cls-2" x="96.68" y="77.02" width="0.59" height="12.68" transform="translate(-1.76 164.61) rotate(-80.14)"/><rect id="Rectangle_962" data-name="Rectangle 962" class="cls-2" x="96.27" y="79.34" width="0.59" height="12.68" transform="translate(-4.39 166.14) rotate(-80.14)"/><rect id="Rectangle_963" data-name="Rectangle 963" class="cls-2" x="95.87" y="81.66" width="0.59" height="12.68" transform="translate(-7.01 167.67) rotate(-80.14)"/><rect id="Rectangle_964" data-name="Rectangle 964" class="cls-2" x="95.46" y="83.99" width="0.59" height="12.68" transform="translate(-9.64 169.19) rotate(-80.14)"/><rect id="Rectangle_965" data-name="Rectangle 965" class="cls-2" x="95.06" y="86.31" width="0.59" height="12.68" transform="translate(-12.26 170.72) rotate(-80.14)"/><rect id="Rectangle_966" data-name="Rectangle 966" class="cls-2" x="94.66" y="88.63" width="0.59" height="12.68" transform="translate(-14.88 172.25) rotate(-80.14)"/></g></g></g></svg>