<svg xmlns="http://www.w3.org/2000/svg" viewBox="0 0 433.65 452.46"><defs><style>.cls-1{fill:#3f3d56;}.cls-2{fill:none;stroke:#3f3d56;stroke-miterlimit:10;stroke-width:2px;}.cls-3{fill:#e6e6e6;}.cls-4{fill:#fea01a;}.cls-5{fill:#fff;}.cls-6{fill:#a8a8a8;}.cls-7{opacity:0.2;}.cls-11,.cls-12,.cls-7{isolation:isolate;}.cls-8{fill:#2f2e41;}.cls-9{fill:#a0616a;}.cls-10{fill:#575a89;}.cls-11{opacity:0.1;}.cls-12,.cls-13{fill:#ffb8b8;}.cls-12{opacity:0.75;}.cls-14{fill:#f2f2f2;}</style></defs><title>ADMI LOGIN SVG</title><g id="Layer_2" data-name="Layer 2"><g id="Layer_1-2" data-name="Layer 1"><g id="Group_514" data-name="Group 514"><ellipse id="Ellipse_461" data-name="Ellipse 461" class="cls-1" cx="219.12" cy="424.05" rx="160.66" ry="28.42"/><path id="Path_2384" data-name="Path 2384" class="cls-2" d="M85.23,156.4c0-41.4,60.7-75,135.58-75s135.58,33.57,135.58,75"/><path id="Path_2385" data-name="Path 2385" class="cls-3" d="M263.44,110.3H153.14q-32.73-55.15,0-110.3h110.3Q217.68,55.16,263.44,110.3Z"/><rect id="Rectangle_1002" data-name="Rectangle 1002" class="cls-4" x="168.89" y="13.13" width="62.15" height="7.88"/><rect id="Rectangle_1003" data-name="Rectangle 1003" class="cls-5" x="148.76" y="38.96" width="82.29" height="2.63"/><rect id="Rectangle_1004" data-name="Rectangle 1004" class="cls-5" x="148.76" y="52.53" width="82.29" height="2.63"/><rect id="Rectangle_1005" data-name="Rectangle 1005" class="cls-5" x="148.76" y="66.09" width="82.29" height="2.63"/><path id="Path_2386" data-name="Path 2386" class="cls-1" d="M307.47,354.46c0,35,21.95,63.29,49.07,63.29"/><path id="Path_2387" data-name="Path 2387" class="cls-4" d="M356.54,417.75c0-35.37,24.49-64,54.76-64"/><path id="Path_2388" data-name="Path 2388" class="cls-4" d="M325.25,357.63c0,33.23,14,60.12,31.29,60.12"/><path id="Path_2389" data-name="Path 2389" class="cls-1" d="M356.54,417.75c0-45.2,28.31-81.78,63.29-81.78"/><path id="Path_2390" data-name="Path 2390" class="cls-6" d="M346.22,418.2s7-.22,9-1.71,10.7-3.28,11.23-.88,10.45,11.91,2.6,12-18.26-1.22-20.35-2.5S346.22,418.2,346.22,418.2Z"/><path id="Path_2391" data-name="Path 2391" class="cls-7" d="M369.24,426.75c-7.86.06-18.25-1.22-20.35-2.5-1.59-1-2.23-4.46-2.44-6.06h-.23s.44,5.61,2.53,6.88,12.49,2.57,20.35,2.5c2.27,0,3-.82,3-2C371.79,426.28,370.93,426.73,369.24,426.75Z"/><path id="Path_2392" data-name="Path 2392" class="cls-8" d="M195.53,86.17a1.53,1.53,0,0,0,1.79-.74c1.43-2.26-1.21-5.17-.63-7.79.45-2.09,2.83-3.34,3.32-5.42s-1-4.32,0-6.15c.77-1.44,2.7-1.82,4.31-1.57s3.14,1,4.77,1.06c2.17.13,4.24-.82,6.36-1.3s4.71-.29,6,1.49c1.6,2.29,0,5.47.54,8.21.44,2.17,2.26,4,2.3,6.19,0,.78-2.06.15-1.95.93s-.87.09-.08,0a1.54,1.54,0,0,0,1.17-1.4c.1-.65,1.32-.87,1.3-1.52,0-1.54,2.75-.5,3.21-2a14.88,14.88,0,0,0-.61-10.39,20.91,20.91,0,0,1-1.77-4.23c-.41-2,.23-4.23-.44-6.2-.91-2.65-3.92-4-6.7-4.28s-5.63.22-8.4-.19c-2.49-.36-4.89-1.44-7.4-1.28-3,.19-5.63,2.12-7.71,4.3s-3.86,4.68-6.22,6.54a12.19,12.19,0,0,0-2,1.72,6.66,6.66,0,0,0-1,5.43c.33,1.87,1.06,3.66,1.37,5.53s.2,3.57.33,5.35a9.45,9.45,0,0,0,1.56,5.05,4.78,4.78,0,0,0,3.71,1.93c.5,0,.93-.44,1.43-.32S195,85.91,195.53,86.17Z"/><path id="Path_2393" data-name="Path 2393" class="cls-9" d="M174.07,215.69l1.86,11.42,3.72-5.05-2.13-7.7Z"/><path id="Path_2394" data-name="Path 2394" class="cls-10" d="M176.46,129.32,173.53,137s-2.92,39.32-2.92,42.24,2.13,40.39,2.93,42c0,0,3.45-5.05,8-4.25s2.66-13.29,2.66-13.29l4.25-34.81-.8-17.54Z"/><path id="Path_2395" data-name="Path 2395" class="cls-11" d="M176.46,129.32,173.53,137s-2.92,39.32-2.92,42.24,2.13,40.39,2.93,42c0,0,3.45-5.05,8-4.25s2.66-13.29,2.66-13.29l4.25-34.81-.8-17.54Z"/><path id="Path_2396" data-name="Path 2396" class="cls-9" d="M194.53,86.8s8.77,22.32,3.72,26.57,28.17-7.17,28.17-7.17l-.8-2.93S214.72,99,220,86.8,194.53,86.8,194.53,86.8Z"/><path id="Path_2397" data-name="Path 2397" class="cls-12" d="M194.53,86.8s8.77,22.32,3.72,26.57,28.17-7.17,28.17-7.17l-.8-2.93S214.72,99,220,86.8,194.53,86.8,194.53,86.8Z"/><path id="Path_2398" data-name="Path 2398" class="cls-10" d="M180.71,385s-3.72-1.06-5.84,1.6-10.1,9.3-10.1,9.3-15.42-1.6-17.54,6.11,24.18,7.71,30.56,5.85,7.7,0,7.7,0,19.67,1.59,19.67-1.6-1.86-14.08-1.86-14.08Z"/><path id="Path_2399" data-name="Path 2399" class="cls-10" d="M243.16,402.78l-3.45,10.63s-10.36,14.35-4.52,17.27,26.58,5.85,26.58-1.86V414.21s-2.13-10.37-4.26-11.43S243.16,402.78,243.16,402.78Z"/><path id="Path_2400" data-name="Path 2400" class="cls-8" d="M184.48,211.8s-11.2,9.73-10.94,11.06,5.58,86.64,5.58,86.64L182,364.77s-3.72,13-1.86,16-2.66,3.72-2.66,3.72,19.14,17.27,27.11,9.83l7.44-96.47L232.53,368S236,405.17,240,405.17s20.2.8,19.94-1.33.8-18.34-1.07-27.9-14.35-85.31-14.35-85.31-1.07-64.93,1.72-71-1.45-12.45-1.45-12.45L226.16,200l-22.33,2.66Z"/><circle id="Ellipse_462" data-name="Ellipse 462" class="cls-13" cx="207.02" cy="77.23" r="18.6"/><path id="Path_2401" data-name="Path 2401" class="cls-10" d="M252.2,117.36a16.71,16.71,0,0,0-11.69-10.63,103,103,0,0,1-15.68-5.32s-18.87,9-22.59,9-3.72-2.39-3.72-2.39-9.57,10.1-14.62,11.16-12.49,13.55-9.83,20.46a38.41,38.41,0,0,0,7.71,12s-1.07,37.21,2.39,44.12c0,0-8.5,16.21-.53,17.27s38.53-2.66,43.85,1.06,15.14-.8,16.47,4.26,4.25,6.11,4.25,6.11,4.52-7.18,1.86-11.43S252.2,117.36,252.2,117.36Z"/><path id="Path_2402" data-name="Path 2402" class="cls-9" d="M232.53,217.28l-4.25,2.66s4.52,15.68,6.38,16.21,6.24-13.4,6.24-13.4Z"/><path id="Path_2403" data-name="Path 2403" class="cls-8" d="M192.35,84.31a1.52,1.52,0,0,0,1.78-.74c1.43-2.26-1.21-5.17-.63-7.79.45-2.09,2.83-3.34,3.32-5.42s-1-4.32,0-6.16c.77-1.43,2.7-1.81,4.31-1.56s3.14,1,4.77,1.06c2.17.13,4.24-.82,6.36-1.3s4.72-.29,6,1.49c1.6,2.29,0,5.47.54,8.21.44,2.17,5.49,3.7,6,2.22a14.83,14.83,0,0,0-.61-10.39,20.83,20.83,0,0,1-1.77-4.22c-.41-2,.23-4.23-.44-6.2-.91-2.66-3.91-4-6.7-4.28s-5.63.21-8.4-.19c-2.49-.36-4.89-1.44-7.4-1.28-3,.18-5.63,2.12-7.71,4.3s-3.85,4.67-6.22,6.54a11.72,11.72,0,0,0-2,1.72,6.7,6.7,0,0,0-1,5.43c.33,1.87,1.07,3.66,1.37,5.53s.2,3.57.33,5.35a9.37,9.37,0,0,0,1.57,5.05,4.76,4.76,0,0,0,3.7,1.93c.5,0,.93-.44,1.43-.32S191.78,84.05,192.35,84.31Z"/><path id="Path_2404" data-name="Path 2404" class="cls-11" d="M241.7,122l8.64-4.65s21,50,16,63.78-24.46,42.25-24.46,42.25S226.42,220.2,228,217s12-23.65,12.76-26.3,6.11-19.94,3.72-21.8-7-45-7-45Z"/><path id="Path_2405" data-name="Path 2405" class="cls-10" d="M241.57,114.44l10.63,2.92s21,50,15.95,63.78S243.7,223.4,243.7,223.4s-15.42-3.19-13.82-6.38,12-23.65,12.75-26.31,6.12-19.93,3.72-21.79-13.81-47.84-13.81-47.84Z"/><path id="Path_2406" data-name="Path 2406" class="cls-2" d="M356.39,156.39c0,43.4-60.7,78.59-135.58,78.59S85.23,199.8,85.23,156.39"/><path id="Path_2407" data-name="Path 2407" class="cls-2" d="M331.72,236.1c-30.3,16.35-69.84,26.24-113.1,26.24-41.47,0-79.54-9.1-109.31-24.25"/><path id="Path_2408" data-name="Path 2408" class="cls-2" d="M288.51,61.15c57.68,15.16,98.75,48.5,102.57,87.78"/><path id="Path_2409" data-name="Path 2409" class="cls-2" d="M54.19,123.4c9.71-17.86,27.47-33.58,50.73-45.65"/><path id="Path_2410" data-name="Path 2410" class="cls-14" d="M173.42,314.6h110.3q32.73-55.16,0-110.3H173.42Q219.17,259.44,173.42,314.6Z"/><rect id="Rectangle_1006" data-name="Rectangle 1006" class="cls-4" x="209.92" y="225.3" width="62.15" height="7.88"/><rect id="Rectangle_1007" data-name="Rectangle 1007" class="cls-5" x="205.1" y="248.94" width="82.29" height="2.63"/><rect id="Rectangle_1008" data-name="Rectangle 1008" class="cls-5" x="205.1" y="262.51" width="82.29" height="2.63"/><path id="Path_2411" data-name="Path 2411" class="cls-14" d="M126.66,239.73H16.36q-32.71-55.15,0-110.3h110.3Q80.91,184.58,126.66,239.73Z"/><rect id="Rectangle_1009" data-name="Rectangle 1009" class="cls-4" x="28.62" y="142.56" width="62.15" height="7.88"/><rect id="Rectangle_1010" data-name="Rectangle 1010" class="cls-5" x="15.05" y="164.44" width="82.29" height="2.63"/><rect id="Rectangle_1011" data-name="Rectangle 1011" class="cls-5" x="15.05" y="178.01" width="82.29" height="2.63"/><rect id="Rectangle_1012" data-name="Rectangle 1012" class="cls-5" x="15.05" y="191.58" width="82.29" height="2.63"/><rect id="Rectangle_1013" data-name="Rectangle 1013" class="cls-5" x="15.05" y="205.15" width="82.29" height="2.63"/><path id="Path_2412" data-name="Path 2412" class="cls-14" d="M307,188.92h110.3q32.73-55.15,0-110.3H307Q352.74,133.78,307,188.92Z"/><rect id="Rectangle_1014" data-name="Rectangle 1014" class="cls-4" x="342.17" y="89.56" width="62.15" height="7.88"/><rect id="Rectangle_1015" data-name="Rectangle 1015" class="cls-5" x="335.61" y="111.45" width="82.29" height="2.63"/></g></g></g></svg>