<?xml version="1.0"?>
<svg xmlns="http://www.w3.org/2000/svg" height="512px" viewBox="0 -3 413.7 413" width="512px" class=""><g><link xmlns="" type="text/css" id="dark-mode" rel="stylesheet" href="" class="active-path" style=""/><style xmlns="" type="text/css" id="dark-mode-custom-style" class="active-path"/><path d="m324 33.351562c-.019531-18.21875-14.78125-32.984374-33-33h-44v22.097657c0 3.867187-3.132812 7-7 7s-7-3.132813-7-7v-22.097657h-142v22.097657c0 3.867187-3.132812 7-7 7s-7-3.132813-7-7v-22.097657h-44c-18.21875.015626-32.9804688 14.78125-33 33v27.199219h323.898438v-27.199219zm0 0" data-original="#000000" class="active-path" fill="#FFA11B"/><path d="m320.699219 207.25c1.101562 0 2.199219 0 3.300781.101562v-132.902343h-323.898438v229.800781c.015626 18.21875 14.78125 32.980469 33 33h183.097657c-1.648438-7.554688-2.484375-15.265625-2.5-23 .066406-59.066406 47.933593-106.933594 107-107zm-246.097657-40.898438h155c3.863282 0 7 3.132813 7 7 0 3.863282-3.136718 7-7 7h-155c-3.867187 0-7-3.136718-7-7 0-3.867187 3.132813-7 7-7zm92.796876 79h-92.796876c-3.867187 0-7-3.136718-7-7 0-3.867187 3.132813-7 7-7h92.796876c3.867187 0 7 3.132813 7 7 0 3.863282-3.132813 7-7 7zm0 0" data-original="#000000" class="active-path" fill="#FFA11B"/><path d="m320.699219 221.25c-51.363281 0-93 41.636719-93 93s41.636719 93 93 93 93-41.636719 93-93c-.042969-51.34375-41.65625-92.957031-93-93zm52.800781 100h-45.800781v45.800781c0 3.863281-3.132813 7-7 7-3.863281 0-7-3.136719-7-7v-45.800781h-45.800781c-3.863282 0-7-3.132812-7-7s3.136718-7 7-7h45.800781v-45.800781c0-3.863281 3.136719-7 7-7 3.867187 0 7 3.136719 7 7v45.800781h45.800781c3.867188 0 7 3.132812 7 7s-3.132812 7-7 7zm0 0" data-original="#000000" class="active-path" fill="#FFA11B"/></g> </svg>
