<svg xmlns="http://www.w3.org/2000/svg" viewBox="0 0 28 28"><defs><style>.cls-1{fill:none;}.cls-2{fill:#fea01a;}</style></defs><title>NOTIFICATIONS</title><g id="Layer_2" data-name="Layer 2"><g id="Layer_1-2" data-name="Layer 1"><g id="Alert"><rect id="Rectangle_479" data-name="Rectangle 479" class="cls-1" width="28" height="28"/><path id="Path_1" data-name="Path 1" class="cls-2" d="M25.88,24.27H17.32a3.43,3.43,0,1,1-6.85,0H1.91a1.64,1.64,0,0,1-1.54-1.2,1.82,1.82,0,0,1,.51-1.88,6.9,6.9,0,0,0,2.74-5.48V10.57a10.28,10.28,0,0,1,20.55,0v5.14a6.87,6.87,0,0,0,2.74,5.48,1.62,1.62,0,0,1,.51,1.88A1.64,1.64,0,0,1,25.88,24.27Z"/></g></g></g></svg>