<svg xmlns="http://www.w3.org/2000/svg" viewBox="0 0 32.05 33"><defs><style>.cls-1{fill:#fea01a;}.cls-2{fill:none;}</style></defs><title>PERSONAL SETTINGS ICON</title><g id="Layer_2" data-name="Layer 2"><g id="Layer_1-2" data-name="Layer 1"><g id="Group_555" data-name="Group 555"><g id="Group_554" data-name="Group 554"><g id="Profile"><g id="Union_1" data-name="Union 1"><circle id="Ellipse_3" data-name="Ellipse 3" class="cls-1" cx="15.17" cy="7.5" r="7.5"/><path id="Path_2576" data-name="Path 2576" class="cls-1" d="M20.41,22.89l-1,1.87L21,26.63c0,.43-.1.94-.1,1.35a5.59,5.59,0,0,0,.1,1.35l-.49.54H0V26.09c0-4.17,6.81-7.57,15.14-7.57a27.81,27.81,0,0,1,3.76.23,22.11,22.11,0,0,1,6.94,2l-.46,1.33a5.85,5.85,0,0,0-2.49,1.36Z"/></g></g><g id="Settings"><rect id="Rectangle_193" data-name="Rectangle 193" class="cls-2" x="21.67" y="22" width="10" height="11"/><path id="Path_104" data-name="Path 104" class="cls-1" d="M27.13,29a1.27,1.27,0,0,0,1.28-1.27h0a1.28,1.28,0,0,0-1.28-1.28h0a1.28,1.28,0,0,0-1.28,1.28h0A1.28,1.28,0,0,0,27.13,29Zm-2.61-4.08a3.58,3.58,0,0,1,1.53-.83l.51-1.47h1.28l.51,1.46a4.49,4.49,0,0,1,1.53.84l1.53-.32.64,1.14-1,1.15a3.35,3.35,0,0,1,.06.83c0,.26-.06.57-.06.84l1,1.14-.64,1.15-1.53-.32a3.6,3.6,0,0,1-1.53.84l-.51,1.46H26.56l-.51-1.46a4.49,4.49,0,0,1-1.53-.84L23,30.87l-.64-1.15,1-1.14a3.41,3.41,0,0,1-.07-.84c0-.25.07-.56.07-.83l-1-1.15L23,24.61Z"/></g></g></g></g></g></svg>