<svg xmlns="http://www.w3.org/2000/svg" viewBox="0 0 17.07 17.07"><defs><style>.cls-1{opacity:0.5;}.cls-2{fill:none;}</style></defs><title>search icon</title><g id="Layer_2" data-name="Layer 2"><g id="Layer_1-2" data-name="Layer 1"><g id="Search" class="cls-1"><rect id="Rectangle_176" data-name="Rectangle 176" class="cls-2" width="17.07" height="17.07"/><path id="Path_99" data-name="Path 99" d="M17,15.47,13.44,12a7.33,7.33,0,0,0,1.5-4.48A7.43,7.43,0,0,0,7.56,0H7.47A7.42,7.42,0,0,0,0,7.37v.1a7.41,7.41,0,0,0,7.37,7.46h.1A7.27,7.27,0,0,0,12,13.44L15.47,17Zm-14.83-8A5.3,5.3,0,0,1,7.36,2.13h.11A5.29,5.29,0,0,1,12.8,7.36v.11A5.28,5.28,0,0,1,7.57,12.8h-.1A5.28,5.28,0,0,1,2.13,7.57v-.1Z"/></g></g></g></svg>