<svg xmlns="http://www.w3.org/2000/svg" viewBox="0 0 28 28"><defs><style>.cls-1{fill:none;}.cls-2{fill:#fea01a;}</style></defs><title>SETTINGS</title><g id="Layer_2" data-name="Layer 2"><g id="Layer_1-2" data-name="Layer 1"><g id="Settings"><rect id="Rectangle_193" data-name="Rectangle 193" class="cls-1" width="28" height="28"/><path id="Path_104" data-name="Path 104" class="cls-2" d="M13.13,17.47A3.47,3.47,0,1,0,9.66,14h0A3.48,3.48,0,0,0,13.13,17.47ZM6,6.37a9.78,9.78,0,0,1,4.16-2.25l1.38-4H15l1.39,4a12.11,12.11,0,0,1,4.16,2.25l4.16-.87,1.73,3.13-2.77,3.12A10,10,0,0,1,23.88,14c0,.7-.17,1.56-.17,2.26l2.77,3.12L24.75,22.5l-4.16-.87a9.8,9.8,0,0,1-4.16,2.26l-1.39,4H11.57l-1.39-4A12.17,12.17,0,0,1,6,21.63l-4.16.87L.13,19.37,2.9,16.25A10,10,0,0,1,2.73,14c0-.69.17-1.56.17-2.25L.13,8.63,1.86,5.51Z"/></g></g></g></svg>